<svg xmlns="http://www.w3.org/2000/svg" viewBox="0 0 1024 1024" width="1024" height="1024">
  <defs>
    <linearGradient id="silver" x1="0%" y1="0%" x2="100%" y2="100%">
      <stop offset="0%" stop-color="#f4f1e8"/>
      <stop offset="45%" stop-color="#d8d1c5"/>
      <stop offset="75%" stop-color="#8a857c"/>
      <stop offset="100%" stop-color="#f7f5ee"/>
    </linearGradient>
    <linearGradient id="silver2" x1="0%" y1="20%" x2="100%" y2="80%">
      <stop offset="0%" stop-color="#faf7ef"/>
      <stop offset="50%" stop-color="#c6c0b7"/>
      <stop offset="100%" stop-color="#7a756c"/>
    </linearGradient>
    <filter id="soft" x="-20%" y="-20%" width="140%" height="140%">
      <feGaussianBlur stdDeviation="0.6"/>
    </filter>
  </defs>

  <rect width="1024" height="1024" fill="#090b16"/>

  <!-- top crest / head -->
  <path d="M482 254
           C572 230, 675 243, 744 292
           C776 315, 800 341, 813 369
           C778 343, 736 326, 690 321
           C722 337, 748 357, 770 385
           C724 352, 677 337, 626 337
           C656 351, 684 369, 706 392
           C642 361, 577 357, 517 373
           C500 376, 489 374, 479 369
           C506 338, 516 304, 482 254 Z"
        fill="url(#silver)"/>

  <!-- beak / brow -->
  <path d="M706 392
           C760 380, 810 384, 861 404
           C819 412, 783 429, 752 457
           C720 454, 693 440, 672 419
           C683 408, 694 399, 706 392 Z"
        fill="#0a0d17"/>

  <path d="M754 427
           C806 413, 852 419, 886 447
           C857 447, 824 455, 794 472
           C762 491, 739 516, 723 548
           C726 515, 739 482, 754 427 Z"
        fill="url(#silver2)"/>

  <!-- eye -->
  <path d="M742 389
           C767 388, 787 398, 799 416
           C790 435, 771 448, 744 448
           C728 437, 721 421, 723 405
           C729 396, 735 390, 742 389 Z"
        fill="#0f1118"/>
  <path d="M744 398
           C763 397, 778 404, 788 416
           C779 429, 764 436, 748 435
           C738 428, 734 418, 736 408
           C739 403, 742 400, 744 398 Z"
        fill="#1cb6ff" filter="url(#soft)"/>
  <circle cx="763" cy="412" r="6" fill="#dff7ff"/>

  <!-- feather bands -->
  <path d="M386 405
           C425 334, 486 282, 561 259
           C635 237, 703 243, 761 278
           C669 281, 595 315, 523 371
           C471 412, 432 460, 398 526
           C396 484, 392 445, 386 405 Z"
        fill="url(#silver)"/>

  <path d="M372 462
           C403 382, 459 325, 532 292
           C604 259, 676 255, 736 282
           C649 296, 576 340, 509 406
           C454 460, 414 523, 383 602
           C372 558, 369 510, 372 462 Z"
        fill="url(#silver2)"/>

  <path d="M382 545
           C402 467, 447 404, 509 360
           C572 316, 646 299, 714 310
           C640 333, 575 385, 523 452
           C480 508, 453 573, 438 649
           C410 617, 392 583, 382 545 Z"
        fill="url(#silver)"/>

  <path d="M439 616
           C441 545, 469 484, 519 438
           C569 391, 636 363, 704 360
           C639 394, 590 447, 556 510
           C528 560, 512 616, 505 677
           C478 660, 456 640, 439 616 Z"
        fill="url(#silver2)"/>

  <path d="M516 643
           C515 589, 531 541, 562 502
           C595 459, 648 426, 711 408
           C658 452, 625 500, 612 554
           C602 594, 601 633, 605 675
           C570 672, 540 663, 516 643 Z"
        fill="url(#silver)"/>

  <!-- inner lower crescent -->
  <path d="M571 514
           C611 590, 691 640, 787 646
           C835 649, 876 641, 921 624
           C887 669, 846 706, 790 729
           C722 756, 656 754, 597 726
           C540 699, 500 650, 474 587
           C500 548, 531 523, 571 514 Z"
        fill="url(#silver2)"/>
</svg>
