<svg width="63" height="81" viewBox="0 0 63 81" fill="none" xmlns="http://www.w3.org/2000/svg">
<path d="M56.4177 64.4487C56.4177 67.0919 55.4331 69.4083 53.8524 71.1853C53.8341 71.2064 53.8208 71.2316 53.8152 71.259C53.7913 71.3733 53.893 71.4729 54.0059 71.4455C58.5637 70.322 62.249 66.4284 62.249 61.316V34.8108C62.249 26.9757 57.8729 19.7358 50.7688 15.8183L22.0837 0L16.4014 3.21516L44.9375 18.9512C52.0416 22.8688 56.4177 30.1087 56.4177 37.9438V64.4487Z" fill="white"/>
<path d="M48.3992 68.9763V42.4716C48.3992 34.6361 44.0231 27.3961 36.919 23.4786L8.38281 7.7425L14.0651 4.52734L42.7503 20.3456C49.8544 24.2631 54.2305 31.5031 54.2305 39.3382V65.8436C54.2305 70.9561 50.5452 74.8497 45.9875 75.9724C45.8746 76.0005 45.7729 75.9002 45.7967 75.7866C45.8023 75.7592 45.8149 75.734 45.8339 75.713C47.4146 73.9359 48.3992 71.6188 48.3992 68.9763Z" fill="white"/>
<path fill-rule="evenodd" clip-rule="evenodd" d="M0 12.4875L5.7563 9.23047L34.4412 25.0487C41.5453 28.9663 45.9221 36.2062 45.9221 44.0408V70.6767C45.8239 78.6392 36.7709 83.5882 29.5212 79.5902L3.5231 65.2536L0 63.3608V12.4875ZM40.0908 47.2569V62.6441L20.7742 51.9921V23.9434L28.61 28.2644C35.714 32.182 40.0908 39.4219 40.0908 47.2569ZM13.485 19.9237L16.4006 21.5316V54.4024L16.7067 54.5665L40.0908 67.4613V70.4383L13.5226 55.7875L13.485 55.8085V19.9237ZM8.74704 17.311V58.3367L8.88408 58.4118L8.74704 58.4896L40.055 75.7541C39.7928 77.1307 38.1482 77.9162 36.8102 77.1784L5.83134 60.0956V15.7031L8.74704 17.311Z" fill="white"/>
</svg>
