<svg width="185" height="178" viewBox="0 0 185 178" fill="none" xmlns="http://www.w3.org/2000/svg">
<g clip-path="url(#clip0_2326_1511)">
<path d="M184.729 88.9688C184.729 88.8815 184.729 88.7942 184.729 88.6945C184.654 76.8477 180.8 65.0259 173.206 55.4737C167.906 48.8021 160.86 43.9386 154.413 38.4767C148.814 33.738 144.474 27.6774 139.836 22.0159C131.443 12.1394 120.382 5.66737 108.298 2.6745C108.136 2.63709 107.974 2.59968 107.824 2.5498C107.326 2.4251 106.827 2.3004 106.315 2.18816C102.15 1.24042 97.8726 0.69173 93.6202 0.542087C93.1214 0.504676 92.6974 0.492206 92.4355 0.504676C92.1238 0.504676 91.6499 0.504676 91.1012 0.542087C87.198 0.69173 83.2699 1.1656 79.4041 1.9637C70.4255 3.70954 61.7836 7.32592 54.501 12.9126C48.0289 17.8758 43.153 24.3977 38.0277 30.6578C27.9517 42.9535 13.3241 49.8371 5.91676 64.5645C3.39777 69.59 1.73922 74.9398 0.878773 80.3893C0.779011 81.0003 0.691719 81.6238 0.604427 82.2473C0.567016 82.5591 0.517135 82.8833 0.479724 83.1951C0.355021 84.3049 0.2802 85.4148 0.230319 86.5247C0.230319 86.6369 0.217848 86.7616 0.217848 86.8738C0.167967 88.0086 0.167967 89.1434 0.205378 90.2782C0.205378 90.4403 0.205378 90.6024 0.205378 90.7645C0.242789 91.7497 0.30514 92.7348 0.392432 93.7075C0.442313 94.2437 0.492194 94.78 0.554546 95.3162C0.616897 95.8524 0.691719 96.3886 0.766541 96.9249C2.11333 106.153 5.76712 115.044 11.7279 122.526C16.7035 128.774 23.238 133.563 29.3733 138.588C34.773 143.015 38.9006 148.427 43.3026 153.802C47.9416 159.463 53.2415 164.152 59.09 167.831C59.115 167.843 59.1274 167.856 59.1524 167.881C59.1773 167.893 59.2022 167.918 59.2397 167.931C59.5265 168.118 59.8133 168.292 60.1126 168.467C77.3714 179.466 101.228 180.388 119.509 171.41C121.417 170.475 123.25 169.402 125.008 168.23C131.568 164.165 137.479 158.852 142.754 152.418C147.205 146.981 151.483 141.918 156.932 137.453C163.118 132.39 169.502 127.552 174.316 121.067C181.237 111.74 184.679 100.491 184.729 89.2432C184.729 89.1434 184.729 89.0436 184.729 88.9439V88.9688ZM67.0086 162.88C60.0003 157.106 55.0496 149.25 53.1043 140.583C52.805 139.274 53.7153 138.002 55.0496 137.852C56.0473 137.74 57.0449 137.615 58.0425 137.441C73.7301 134.71 85.8138 124.634 92.3108 111.316C92.9468 112.65 93.6202 113.959 94.3684 115.231C101.938 128.001 114.907 135.745 129.036 137.703C129.336 135.807 129.473 133.887 129.46 131.966C120.956 129.797 113.324 123.773 108.124 116.017C98.5834 101.788 97.4361 82.4344 105.106 67.1084C109.333 58.666 116.803 50.6975 125.694 47.0188C129.111 45.6097 132.678 48.6524 131.992 52.2813C130.333 61.0479 125.657 69.2284 118.649 75.1518C114.122 78.9801 108.984 81.6986 103.609 83.2948C103.397 85.0906 103.298 86.8988 103.298 88.7069C103.298 88.7069 103.285 88.7069 103.273 88.7069C103.273 88.8566 103.273 89.0187 103.285 89.1683C103.285 89.2681 103.285 89.3679 103.285 89.4801C103.285 89.4801 103.285 89.4801 103.298 89.4801C103.323 91.201 103.422 92.9219 103.622 94.6179C115.793 98.3714 126.143 107.649 130.533 119.833C135.982 134.947 130.807 152.006 118.649 162.282C118.1 162.743 117.526 163.179 116.953 163.603C101.327 174.615 82.0478 173.966 67.0211 162.893L67.0086 162.88ZM67.0086 15.1323C83.9059 2.59968 104.595 4.42034 119.833 16.8033C124.547 21.143 128.301 26.5426 130.508 32.6905C131.069 34.2492 131.505 35.833 131.842 37.4292C132.104 38.7011 131.219 39.9357 129.934 40.0853C118.013 41.5194 106.69 47.0687 98.758 56.5212C96.1641 59.6013 94.0192 62.9808 92.3108 66.5597C86.8738 55.324 77.4587 46.2955 64.9012 42.1928C61.9083 41.2201 58.8406 40.5592 55.748 40.1477C55.4736 42.0058 55.3489 43.8763 55.3863 45.7219C55.4362 45.7344 55.4986 45.7468 55.5485 45.7593C74.2788 50.9469 84.4421 70.6999 84.7663 88.9564C84.467 105.43 76.6232 122.227 61.3845 129.871C60.574 130.27 59.7759 130.632 58.9653 130.944C55.5983 132.253 52.0942 129.435 52.7052 125.881V125.806C55.3365 110.904 67.0086 99.0573 81.1125 94.6303C81.3744 92.685 81.524 90.777 81.5614 88.9439C81.524 87.0983 81.3494 85.1903 81.0876 83.2824C77.5959 82.2349 74.179 80.701 70.9492 78.6185C57.6185 70.0265 49.9368 54.501 52.7177 38.6762C54.2765 29.7974 59.0401 22.0034 65.612 16.2172C66.0734 15.8431 66.5223 15.4565 66.9962 15.1074L67.0086 15.1323ZM170.949 94.2313C169.652 107.35 164.252 117.675 155.336 125.444C154.738 125.968 154.151 126.442 153.578 126.878C150.236 129.447 145.435 127.577 144.462 123.474C144.462 123.449 144.45 123.424 144.437 123.399C139.786 104.245 123.387 92.897 105.243 89.0811C110.206 88.071 115.02 86.4872 119.497 84.2925C131.805 78.2444 141.332 67.1708 144.437 54.2765C145.397 50.2611 150.099 48.5402 153.466 50.9345C154.7 51.8074 155.86 52.7551 156.97 53.7652C167.071 64.6892 172.458 78.843 170.936 94.2188L170.949 94.2313ZM27.9517 53.7777C29.0616 52.7676 30.2338 51.8199 31.4559 50.9469C34.8229 48.5527 39.5241 50.286 40.4844 54.289C43.5895 67.1708 53.1167 78.2569 65.4249 84.3049C69.9017 86.4997 74.7153 88.0834 79.6784 89.0935C61.5342 92.9094 45.1358 104.245 40.4844 123.412C40.4844 123.437 40.4719 123.462 40.4594 123.487C39.4743 127.577 34.6732 129.447 31.3436 126.891C30.77 126.454 30.1839 125.981 29.5853 125.457C20.6691 117.7 15.2695 107.362 13.9726 94.2437C12.4512 78.8679 17.8383 64.7141 27.9393 53.7902L27.9517 53.7777Z" fill="white"/>
</g>
<defs>
<clipPath id="clip0_2326_1511">
<rect width="185" height="178" fill="white"/>
</clipPath>
</defs>
</svg>
