<svg width="65" height="80" viewBox="0 0 65 80" fill="none" xmlns="http://www.w3.org/2000/svg">
<path d="M58.9452 13.6009C54.8563 9.51934 49.2528 7.5567 43.0696 7.55723C41.4935 7.55723 39.8795 7.68523 38.243 7.93749C36.6273 8.18709 35.1709 6.93324 35.1709 5.30126V0H29.8281V61.6082C29.8281 64.2983 27.8208 66.5634 25.1473 66.901C24.0547 67.0386 22.9792 67.109 21.9298 67.109C18.4592 67.109 13.5433 66.3314 9.83216 62.6274C7.96913 60.7677 6.66496 58.4243 5.9565 55.6622C5.59854 54.267 5.39498 52.7662 5.3517 51.2009C5.30735 49.6004 5.42917 47.922 5.71501 46.2122C6.00726 44.4629 6.47208 42.6704 7.09665 40.8837C7.73672 39.0528 8.54936 37.216 9.51213 35.423C11.5402 31.646 14.1908 28.1116 17.3906 24.9175C19.3466 22.965 21.4586 21.196 23.6678 19.6589C23.9393 19.4701 24.2117 19.2851 24.4858 19.1037V12.851C20.685 14.9939 16.9958 17.7694 13.6127 21.1469C-0.99286 35.7265 -4.37645 55.9865 6.05481 66.3991C10.1436 70.4807 15.7472 72.4428 21.9304 72.4428C23.5065 72.4428 25.1205 72.3148 26.757 72.062C28.3727 71.8124 29.8291 73.0662 29.8291 74.6982V80H35.1719V18.3902C35.1719 15.7001 37.1797 13.4345 39.8533 13.0974C40.9459 12.9598 42.0214 12.89 43.0712 12.89C46.5414 12.89 51.4567 13.6676 55.1678 17.372C57.0309 19.2317 58.335 21.5752 59.0435 24.3373C59.4015 25.7325 59.605 27.2332 59.6483 28.7986C59.6926 30.3991 59.5708 32.0774 59.285 33.7873C58.9927 35.5366 58.5279 37.3291 57.9033 39.1157C57.2633 40.9467 56.4506 42.7834 55.4879 44.5765C53.4597 48.3535 50.8092 51.8878 47.6094 55.0819C45.6534 57.0344 43.5414 58.8035 41.3322 60.3405C41.0607 60.5293 40.7883 60.7144 40.5142 60.8957V67.1484C44.315 65.0055 48.0042 62.2301 51.3873 58.8526C65.9929 44.273 69.3764 24.013 58.9452 13.6004V13.6009Z" fill="white"/>
</svg>
