<svg width="739" height="739" viewBox="0 0 739 739" fill="none" xmlns="http://www.w3.org/2000/svg">
<g clip-path="url(#clip0_2327_1566)">
<path d="M369.062 739C573.317 739 738.123 573.617 738.123 369.935C739 165.383 573.317 0 369.062 0C165.683 0 0 165.383 0 369.065C0 573.617 165.683 739 369.062 739Z" fill="#6B40E0"/>
<path d="M603.907 511.642C602.93 513.362 601.132 514.433 599.214 514.438C552.409 514.563 504.604 503.796 463.945 480.269C429.392 460.276 401.645 432.407 379.854 400.248C412.757 478.315 408.931 568.307 368.583 645.759C367.645 647.559 365.82 648.707 363.851 648.735C361.883 648.763 360.1 647.666 359.231 645.892C321.626 569.124 321.039 478.807 357.237 399.709C332.934 434.591 302.222 464.917 265.546 485.807C225.433 508.662 180.5 521.376 135.243 522.744C133.336 522.802 131.582 521.802 130.659 520.129C129.735 518.457 129.786 516.375 130.792 514.686C155.579 473.065 190.135 438.136 230.985 413.474L231.183 413.348C264.92 393.019 302.566 381.171 340.829 376.586C302.05 373.246 264.359 361.435 230.621 341.913C191.414 319.227 156.93 285.102 133.534 244.687C132.567 243.017 132.589 240.91 133.591 239.194C134.593 237.478 136.415 236.428 138.34 236.457C183.716 237.129 228.24 249.396 267.446 272.082C300.293 291.089 329.816 318.114 352.287 350.141C337.44 315.252 329.012 277.327 329.468 238.613C330.056 188.753 343.955 137.617 369.215 93.7668C370.183 92.0868 371.938 91.0323 373.819 91.0007C375.699 90.9691 377.42 91.9651 378.332 93.6136C401.121 134.792 413.688 182.156 413.729 230.242C413.769 272.439 402.718 314.127 384.499 352.512C408.226 318.683 438.737 290.177 473.825 269.227C513.255 245.69 557.703 232.051 602.695 229.634C604.631 229.53 606.431 230.52 607.382 232.21C608.332 233.901 608.279 236.019 607.244 237.726C582.307 278.849 547.78 313.295 507.098 337.585C473.439 357.677 436.122 370.557 397.932 375.399C436.724 378.339 474.963 388.85 508.707 408.375C549.525 431.994 580.743 466.879 603.91 506.173C604.885 507.827 604.884 509.922 603.907 511.642Z" fill="white"/>
</g>
<defs>
<clipPath id="clip0_2327_1566">
<rect width="739" height="739" fill="white"/>
</clipPath>
</defs>
</svg>
